# xmcd CD database file
#
# Track frame offsets:
#	150
#	14063
#	30483
#	48268
#	66478
#	81890
#	95575
#	105473
#	119133
#	142453
#	156330
#	168650
#	188450
#	206018
#	217668
#	235045
#	254925
#	270675
#
# Disc length: 3787 seconds
#
# Revision: 0
# Processed by: cddbd v1.5.2PL0 Copyright (c) Steve Scherf et al.
# Submitted via: CDex 1.70beta2
#
DISCID=110ec912
DTITLE=One hour - The lonely music hour for you comfort
DYEAR=1990
DGENRE=New Age
TTITLE0=Toccata
TTITLE1=Lost in love
TTITLE2=No more lonely night
TTITLE3=Mr.Lonely
TTITLE4=Sealed with a kiss
TTITLE5=Song of the birds
TTITLE6=Adagio de la concerto in do
TTITLE7=Last waltz
TTITLE8=Concerto de Aranjuez
TTITLE9=Nocturne in E-flat major
TTITLE10=Adagio cardinal
TTITLE11=The pathetique symphony, 1st movement
TTITLE12=La maison est en ruine
TTITLE13=Le canon de pachlbel
TTITLE14=Yesterday
TTITLE15=Casablanca
TTITLE16=The music of good-bye
TTITLE17=Greensleeves
EXTD=YEAR: 1990
EXTT0=
EXTT1=
EXTT2=
EXTT3=
EXTT4=
EXTT5=
EXTT6=
EXTT7=
EXTT8=
EXTT9=
EXTT10=
EXTT11=
EXTT12=
EXTT13=
EXTT14=
EXTT15=
EXTT16=
EXTT17=
PLAYORDER=
